# Blender v2.77 (sub 0) OBJ File: 'human2.blend'
# www.blender.org
mtllib hair2.mtl
o HumanFemale.006_meHumanFemale.006
v 0.307280 1.757318 -0.282976
v 0.325338 1.757345 -0.263931
v 0.343395 1.757373 -0.244885
v 0.361453 1.757400 -0.225839
v 0.379511 1.757428 -0.206794
v 0.397568 1.757455 -0.187748
v 0.261802 1.756038 -0.260613
v 0.281876 1.756052 -0.241605
v 0.301949 1.756066 -0.222596
v 0.322023 1.756080 -0.203587
v 0.342096 1.756094 -0.184579
v 0.362170 1.756107 -0.165570
v 0.352757 1.758597 -0.305339
v 0.368799 1.758638 -0.286256
v 0.384841 1.758680 -0.267174
v 0.400883 1.758721 -0.248091
v 0.416925 1.758762 -0.229009
v 0.432967 1.758803 -0.209926
v 0.326771 1.754759 -0.143392
v 0.304682 1.754759 -0.162364
v 0.282593 1.754759 -0.181336
v 0.260503 1.754759 -0.200307
v 0.238414 1.754759 -0.219279
v 0.216325 1.754759 -0.238251
v 0.426853 1.757483 -0.146960
v 0.438081 1.757483 -0.125217
v 0.449308 1.757483 -0.103475
v 0.460535 1.757483 -0.081732
v 0.396191 1.756121 -0.126339
v 0.410139 1.756121 -0.106116
v 0.424087 1.756121 -0.085894
v 0.438034 1.756121 -0.065671
v 0.457516 1.758845 -0.167581
v 0.466023 1.758845 -0.144318
v 0.474530 1.758845 -0.121056
v 0.483036 1.758845 -0.097793
v 0.415533 1.754759 -0.049610
v 0.398865 1.754759 -0.068313
v 0.382197 1.754759 -0.087015
v 0.365529 1.754759 -0.105718
v 0.237493 1.757290 -0.350271
v 0.190000 1.756025 -0.327871
v 0.415626 1.757483 -0.168702
v 0.382243 1.756121 -0.146561
v 0.471763 1.757483 -0.059990
v 0.451982 1.756121 -0.045449
v 0.284986 1.758556 -0.372670
v 0.142506 1.754759 -0.305471
v 0.449009 1.758845 -0.190843
v 0.348861 1.754759 -0.124420
v 0.491543 1.758845 -0.074531
v 0.432202 1.754759 -0.030908
v 0.689024 1.756145 -0.290652
v 0.672312 1.756173 -0.270415
v 0.655599 1.756201 -0.250179
v 0.638887 1.756228 -0.229942
v 0.622175 1.756256 -0.209705
v 0.605463 1.756283 -0.189469
v 0.735925 1.754866 -0.271454
v 0.717199 1.754880 -0.251116
v 0.698473 1.754894 -0.230778
v 0.679748 1.754907 -0.210441
v 0.661022 1.754921 -0.190103
v 0.642296 1.754935 -0.169765
v 0.642122 1.757425 -0.309850
v 0.627424 1.757466 -0.289715
v 0.612725 1.757507 -0.269579
v 0.598027 1.757549 -0.249444
v 0.583329 1.757590 -0.229308
v 0.568630 1.757631 -0.209172
v 0.679130 1.753587 -0.150062
v 0.699869 1.753587 -0.170500
v 0.720608 1.753587 -0.190939
v 0.741347 1.753587 -0.211378
v 0.762087 1.753587 -0.231817
v 0.782826 1.753587 -0.252256
v 0.579038 1.756311 -0.146772
v 0.569325 1.756311 -0.124312
v 0.559612 1.756311 -0.101852
v 0.549899 1.756311 -0.079393
v 0.611040 1.754949 -0.128298
v 0.598508 1.754949 -0.107168
v 0.585977 1.754949 -0.086039
v 0.573446 1.754949 -0.064909
v 0.547037 1.757673 -0.165247
v 0.540141 1.757673 -0.141456
v 0.533246 1.757673 -0.117666
v 0.526351 1.757673 -0.093876
v 0.596993 1.753587 -0.050425
v 0.612343 1.753587 -0.070225
v 0.627692 1.753587 -0.090024
v 0.643041 1.753587 -0.109823
v 0.754042 1.756118 -0.362565
v 0.802956 1.754852 -0.343467
v 0.588751 1.756311 -0.169232
v 0.623571 1.754949 -0.149427
v 0.540186 1.756311 -0.056933
v 0.560915 1.754949 -0.043779
v 0.705127 1.757383 -0.381662
v 0.851871 1.753587 -0.324370
v 0.553932 1.757673 -0.189037
v 0.658390 1.753587 -0.129623
v 0.519456 1.757673 -0.070086
v 0.581644 1.753587 -0.030626
vt 0.2715 0.6813
vt 0.3232 0.7079
vt 0.3041 0.7306
vt 0.2500 0.7040
vt 0.2930 0.6587
vt 0.3423 0.6852
vt 0.3145 0.6360
vt 0.3614 0.6625
vt 0.3359 0.6133
vt 0.3805 0.6398
vt 0.3574 0.5907
vt 0.3996 0.6171
vt 0.3789 0.5680
vt 0.4186 0.5943
vt 0.1680 0.6282
vt 0.2197 0.6547
vt 0.1959 0.6774
vt 0.1417 0.6508
vt 0.1943 0.6056
vt 0.2436 0.6321
vt 0.2206 0.5830
vt 0.2675 0.6095
vt 0.2469 0.5604
vt 0.2914 0.5869
vt 0.2732 0.5379
vt 0.3153 0.5643
vt 0.2995 0.5153
vt 0.3392 0.5416
vt 0.4056 0.5162
vt 0.4389 0.5390
vt 0.4288 0.5667
vt 0.3923 0.5421
vt 0.4190 0.4904
vt 0.4490 0.5113
vt 0.4324 0.4645
vt 0.4591 0.4836
vt 0.4457 0.4386
vt 0.4693 0.4559
vt 0.3391 0.4708
vt 0.3724 0.4935
vt 0.3558 0.5176
vt 0.3193 0.4930
vt 0.3590 0.4485
vt 0.3890 0.4694
vt 0.3788 0.4263
vt 0.4056 0.4454
vt 0.3986 0.4040
vt 0.4222 0.4213
vt 0.1669 0.7841
vt 0.1104 0.7574
vt 0.0539 0.7308
vt 0.2235 0.8107
vt 0.7391 0.7056
vt 0.6834 0.7223
vt 0.6980 0.7482
vt 0.7561 0.7318
vt 0.7221 0.6794
vt 0.6687 0.6965
vt 0.7050 0.6532
vt 0.6541 0.6707
vt 0.6880 0.6270
vt 0.6394 0.6449
vt 0.6710 0.6008
vt 0.6248 0.6191
vt 0.6540 0.5746
vt 0.6102 0.5933
vt 0.8504 0.6722
vt 0.7948 0.6889
vt 0.8141 0.7155
vt 0.8722 0.6992
vt 0.8287 0.6452
vt 0.7754 0.6623
vt 0.8070 0.6182
vt 0.7560 0.6357
vt 0.7852 0.5912
vt 0.7366 0.6091
vt 0.7635 0.5643
vt 0.7173 0.5826
vt 0.7417 0.5373
vt 0.6979 0.5560
vt 0.6372 0.5189
vt 0.6003 0.5352
vt 0.6052 0.5643
vt 0.6456 0.5468
vt 0.6287 0.4910
vt 0.5954 0.5061
vt 0.6203 0.4632
vt 0.5905 0.4771
vt 0.6119 0.4353
vt 0.5856 0.4480
vt 0.7108 0.4863
vt 0.6740 0.5026
vt 0.6859 0.5293
vt 0.7263 0.5118
vt 0.6954 0.4608
vt 0.6621 0.4759
vt 0.6799 0.4353
vt 0.6501 0.4492
vt 0.6645 0.4098
vt 0.6382 0.4225
vt 0.8232 0.8257
vt 0.8836 0.8098
vt 0.9440 0.7938
vt 0.7627 0.8416
vn -0.0205 0.9996 0.0180
vn -0.0211 0.9996 0.0170
vn -0.0197 0.9996 0.0173
vn -0.0192 0.9996 0.0182
vn -0.0214 0.9996 0.0188
vn -0.0220 0.9996 0.0179
vn -0.0223 0.9995 0.0197
vn -0.0230 0.9995 0.0187
vn -0.0233 0.9995 0.0207
vn -0.0240 0.9995 0.0197
vn -0.0244 0.9995 0.0217
vn -0.0252 0.9995 0.0207
vn -0.0284 0.9994 0.0191
vn -0.0291 0.9994 0.0179
vn -0.0190 0.9996 0.0207
vn -0.0195 0.9996 0.0199
vn -0.0186 0.9996 0.0193
vn -0.0183 0.9996 0.0197
vn -0.0197 0.9995 0.0216
vn -0.0204 0.9996 0.0208
vn -0.0206 0.9995 0.0225
vn -0.0212 0.9995 0.0217
vn -0.0215 0.9995 0.0235
vn -0.0222 0.9995 0.0227
vn -0.0225 0.9994 0.0246
vn -0.0232 0.9994 0.0237
vn -0.0251 0.9994 0.0238
vn -0.0264 0.9994 0.0221
vn -0.0361 0.9991 0.0186
vn -0.0373 0.9991 0.0163
vn -0.0341 0.9993 0.0150
vn -0.0330 0.9993 0.0170
vn -0.0398 0.9990 0.0205
vn -0.0410 0.9990 0.0180
vn -0.0443 0.9987 0.0228
vn -0.0457 0.9987 0.0201
vn -0.0466 0.9986 0.0244
vn -0.0488 0.9986 0.0214
vn -0.0316 0.9992 0.0248
vn -0.0332 0.9992 0.0229
vn -0.0304 0.9993 0.0209
vn -0.0290 0.9993 0.0228
vn -0.0348 0.9990 0.0273
vn -0.0365 0.9990 0.0251
vn -0.0387 0.9988 0.0304
vn -0.0407 0.9988 0.0280
vn -0.0410 0.9986 0.0322
vn -0.0429 0.9986 0.0296
vn -0.0183 0.9996 0.0187
vn -0.0181 0.9996 0.0192
vn -0.0180 0.9996 0.0194
vn -0.0185 0.9996 0.0184
vn -0.0217 -0.9996 -0.0165
vn -0.0222 -0.9996 -0.0156
vn -0.0208 -0.9996 -0.0159
vn -0.0204 -0.9996 -0.0168
vn -0.0226 -0.9996 -0.0173
vn -0.0232 -0.9996 -0.0163
vn -0.0237 -0.9995 -0.0181
vn -0.0242 -0.9995 -0.0171
vn -0.0247 -0.9995 -0.0190
vn -0.0253 -0.9995 -0.0180
vn -0.0259 -0.9995 -0.0200
vn -0.0265 -0.9995 -0.0189
vn -0.0296 -0.9994 -0.0172
vn -0.0303 -0.9994 -0.0159
vn -0.0203 -0.9996 -0.0193
vn -0.0208 -0.9996 -0.0185
vn -0.0199 -0.9996 -0.0180
vn -0.0196 -0.9996 -0.0185
vn -0.0212 -0.9995 -0.0202
vn -0.0217 -0.9996 -0.0193
vn -0.0221 -0.9995 -0.0211
vn -0.0227 -0.9995 -0.0202
vn -0.0231 -0.9995 -0.0220
vn -0.0237 -0.9995 -0.0211
vn -0.0241 -0.9994 -0.0230
vn -0.0248 -0.9994 -0.0221
vn -0.0267 -0.9994 -0.0220
vn -0.0279 -0.9994 -0.0202
vn -0.0373 -0.9991 -0.0161
vn -0.0383 -0.9991 -0.0137
vn -0.0350 -0.9993 -0.0126
vn -0.0341 -0.9993 -0.0147
vn -0.0411 -0.9990 -0.0177
vn -0.0422 -0.9990 -0.0151
vn -0.0458 -0.9987 -0.0197
vn -0.0470 -0.9987 -0.0169
vn -0.0482 -0.9986 -0.0212
vn -0.0502 -0.9986 -0.0180
vn -0.0332 -0.9992 -0.0226
vn -0.0346 -0.9992 -0.0205
vn -0.0317 -0.9993 -0.0188
vn -0.0305 -0.9993 -0.0208
vn -0.0366 -0.9990 -0.0249
vn -0.0381 -0.9990 -0.0226
vn -0.0407 -0.9988 -0.0277
vn -0.0425 -0.9988 -0.0251
vn -0.0431 -0.9986 -0.0294
vn -0.0448 -0.9986 -0.0266
vn -0.0196 -0.9996 -0.0174
vn -0.0194 -0.9996 -0.0179
vn -0.0193 -0.9996 -0.0181
vn -0.0197 -0.9996 -0.0171
usemtl Material.003
s 1
f 2/1/1 14/2/2 13/3/3 1/4/4
f 3/5/5 15/6/6 14/2/2 2/1/1
f 4/7/7 16/8/8 15/6/6 3/5/5
f 5/9/9 17/10/10 16/8/8 4/7/7
f 6/11/11 18/12/12 17/10/10 5/9/9
f 43/13/13 49/14/14 18/12/12 6/11/11
f 23/15/15 8/16/16 7/17/17 24/18/18
f 22/19/19 9/20/20 8/16/16 23/15/15
f 21/21/21 10/22/22 9/20/20 22/19/19
f 20/23/23 11/24/24 10/22/22 21/21/21
f 19/25/25 12/26/26 11/24/24 20/23/23
f 50/27/27 44/28/28 12/26/26 19/25/25
f 8/16/16 2/1/1 1/4/4 7/17/17
f 9/20/20 3/5/5 2/1/1 8/16/16
f 10/22/22 4/7/7 3/5/5 9/20/20
f 11/24/24 5/9/9 4/7/7 10/22/22
f 12/26/26 6/11/11 5/9/9 11/24/24
f 44/28/28 43/13/13 6/11/11 12/26/26
f 26/29/29 34/30/30 33/31/31 25/32/32
f 27/33/33 35/34/34 34/30/30 26/29/29
f 28/35/35 36/36/36 35/34/34 27/33/33
f 45/37/37 51/38/38 36/36/36 28/35/35
f 39/39/39 30/40/40 29/41/41 40/42/42
f 38/43/43 31/44/44 30/40/40 39/39/39
f 37/45/45 32/46/46 31/44/44 38/43/43
f 52/47/47 46/48/48 32/46/46 37/45/45
f 30/40/40 26/29/29 25/32/32 29/41/41
f 31/44/44 27/33/33 26/29/29 30/40/40
f 32/46/46 28/35/35 27/33/33 31/44/44
f 46/48/48 45/37/37 28/35/35 32/46/46
f 29/41/41 25/32/32 43/13/13 44/28/28
f 40/42/42 29/41/41 44/28/28 50/27/27
f 7/17/17 1/4/4 41/49/49 42/50/50
f 24/18/18 7/17/17 42/50/50 48/51/51
f 1/4/4 13/3/3 47/52/52 41/49/49
f 25/32/32 33/31/31 49/14/14 43/13/13
f 54/53/53 66/54/54 65/55/55 53/56/56
f 55/57/57 67/58/58 66/54/54 54/53/53
f 56/59/59 68/60/60 67/58/58 55/57/57
f 57/61/61 69/62/62 68/60/60 56/59/59
f 58/63/63 70/64/64 69/62/62 57/61/61
f 95/65/65 101/66/66 70/64/64 58/63/63
f 75/67/67 60/68/68 59/69/69 76/70/70
f 74/71/71 61/72/72 60/68/68 75/67/67
f 73/73/73 62/74/74 61/72/72 74/71/71
f 72/75/75 63/76/76 62/74/74 73/73/73
f 71/77/77 64/78/78 63/76/76 72/75/75
f 102/79/79 96/80/80 64/78/78 71/77/77
f 60/68/68 54/53/53 53/56/56 59/69/69
f 61/72/72 55/57/57 54/53/53 60/68/68
f 62/74/74 56/59/59 55/57/57 61/72/72
f 63/76/76 57/61/61 56/59/59 62/74/74
f 64/78/78 58/63/63 57/61/61 63/76/76
f 96/80/80 95/65/65 58/63/63 64/78/78
f 78/81/81 86/82/82 85/83/83 77/84/84
f 79/85/85 87/86/86 86/82/82 78/81/81
f 80/87/87 88/88/88 87/86/86 79/85/85
f 97/89/89 103/90/90 88/88/88 80/87/87
f 91/91/91 82/92/92 81/93/93 92/94/94
f 90/95/95 83/96/96 82/92/92 91/91/91
f 89/97/97 84/98/98 83/96/96 90/95/95
f 104/99/99 98/100/100 84/98/98 89/97/97
f 82/92/92 78/81/81 77/84/84 81/93/93
f 83/96/96 79/85/85 78/81/81 82/92/92
f 84/98/98 80/87/87 79/85/85 83/96/96
f 98/100/100 97/89/89 80/87/87 84/98/98
f 81/93/93 77/84/84 95/65/65 96/80/80
f 92/94/94 81/93/93 96/80/80 102/79/79
f 59/69/69 53/56/56 93/101/101 94/102/102
f 76/70/70 59/69/69 94/102/102 100/103/103
f 53/56/56 65/55/55 99/104/104 93/101/101
f 77/84/84 85/83/83 101/66/66 95/65/65
