# Blender v2.77 (sub 0) OBJ File: 'human2.blend'
# www.blender.org
mtllib hair2.mtl
o HumanFemale.006_meHumanFemale.006
v 0.313132 1.759584 -0.280041
v 0.331190 1.759612 -0.260995
v 0.349248 1.759639 -0.241949
v 0.367305 1.759667 -0.222904
v 0.385363 1.759694 -0.203858
v 0.403421 1.759722 -0.184813
v 0.267655 1.758305 -0.257678
v 0.287728 1.758319 -0.238669
v 0.307802 1.758332 -0.219661
v 0.327875 1.758346 -0.200652
v 0.347949 1.758360 -0.181643
v 0.368022 1.758374 -0.162635
v 0.358610 1.760863 -0.302403
v 0.374652 1.760905 -0.283321
v 0.390693 1.760946 -0.264238
v 0.406735 1.760987 -0.245156
v 0.422777 1.761029 -0.226073
v 0.438819 1.761070 -0.206990
v 0.332624 1.757026 -0.140457
v 0.310534 1.757026 -0.159428
v 0.288445 1.757026 -0.178400
v 0.266356 1.757026 -0.197372
v 0.244267 1.757026 -0.216344
v 0.222177 1.757026 -0.235315
v 0.432706 1.759750 -0.144024
v 0.443933 1.759750 -0.122282
v 0.455160 1.759750 -0.100539
v 0.466388 1.759750 -0.078797
v 0.402043 1.758388 -0.123403
v 0.415991 1.758388 -0.103181
v 0.429939 1.758388 -0.082958
v 0.443887 1.758388 -0.062736
v 0.463368 1.761111 -0.164645
v 0.471875 1.761111 -0.141383
v 0.480382 1.761111 -0.118120
v 0.488889 1.761111 -0.094858
v 0.421386 1.757026 -0.046675
v 0.404718 1.757026 -0.065377
v 0.388049 1.757026 -0.084080
v 0.371381 1.757026 -0.102782
v 0.243345 1.759557 -0.347335
v 0.195852 1.758291 -0.324935
v 0.421478 1.759750 -0.165767
v 0.388096 1.758388 -0.143626
v 0.477615 1.759750 -0.057054
v 0.457834 1.758388 -0.042513
v 0.290839 1.760822 -0.369735
v 0.148359 1.757026 -0.302536
v 0.454861 1.761111 -0.187908
v 0.354713 1.757026 -0.121485
v 0.497396 1.761111 -0.071595
v 0.438054 1.757026 -0.027972
v 0.635255 1.746632 -0.264994
v 0.620963 1.746659 -0.242981
v 0.606671 1.746687 -0.220969
v 0.592379 1.746714 -0.198956
v 0.578088 1.746742 -0.176943
v 0.563796 1.746769 -0.154930
v 0.684041 1.745352 -0.251278
v 0.667761 1.745366 -0.228934
v 0.651480 1.745380 -0.206591
v 0.635199 1.745394 -0.184248
v 0.618919 1.745407 -0.161905
v 0.602638 1.745421 -0.139562
v 0.586468 1.747911 -0.278711
v 0.574165 1.747952 -0.257028
v 0.561862 1.747993 -0.235346
v 0.549559 1.748035 -0.213663
v 0.537256 1.748076 -0.191981
v 0.524954 1.748117 -0.170299
v 0.641481 1.744073 -0.124193
v 0.659750 1.744073 -0.146867
v 0.678020 1.744073 -0.169541
v 0.696289 1.744073 -0.192214
v 0.714559 1.744073 -0.214888
v 0.732828 1.744073 -0.237561
v 0.542419 1.746797 -0.109495
v 0.535335 1.746797 -0.086073
v 0.528250 1.746797 -0.062651
v 0.521165 1.746797 -0.039229
v 0.576321 1.745435 -0.094796
v 0.566285 1.745435 -0.072374
v 0.556249 1.745435 -0.049951
v 0.546213 1.745435 -0.027529
v 0.508518 1.748159 -0.124194
v 0.504384 1.748159 -0.099772
v 0.500251 1.748159 -0.075350
v 0.496118 1.748159 -0.050929
v 0.571260 1.744073 -0.015829
v 0.584248 1.744073 -0.037252
v 0.597236 1.744073 -0.058675
v 0.610223 1.744073 -0.080097
v 0.691635 1.746604 -0.343861
v 0.742411 1.745338 -0.330475
v 0.549504 1.746797 -0.132917
v 0.586358 1.745435 -0.117219
v 0.514081 1.746797 -0.015807
v 0.536177 1.745435 -0.005107
v 0.640859 1.747869 -0.357247
v 0.793186 1.744073 -0.317089
v 0.512651 1.748159 -0.148616
v 0.623211 1.744073 -0.101520
v 0.491985 1.748159 -0.026507
v 0.558272 1.744073 0.005593
vt 0.2715 0.6813
vt 0.3232 0.7079
vt 0.3041 0.7306
vt 0.2500 0.7040
vt 0.2930 0.6587
vt 0.3423 0.6852
vt 0.3145 0.6360
vt 0.3614 0.6625
vt 0.3359 0.6133
vt 0.3805 0.6398
vt 0.3574 0.5907
vt 0.3996 0.6171
vt 0.3789 0.5680
vt 0.4186 0.5943
vt 0.1680 0.6282
vt 0.2197 0.6547
vt 0.1959 0.6774
vt 0.1417 0.6508
vt 0.1943 0.6056
vt 0.2436 0.6321
vt 0.2206 0.5830
vt 0.2675 0.6095
vt 0.2469 0.5604
vt 0.2914 0.5869
vt 0.2732 0.5379
vt 0.3153 0.5643
vt 0.2995 0.5153
vt 0.3392 0.5416
vt 0.4056 0.5162
vt 0.4389 0.5390
vt 0.4288 0.5667
vt 0.3923 0.5421
vt 0.4190 0.4904
vt 0.4490 0.5113
vt 0.4324 0.4645
vt 0.4591 0.4836
vt 0.4457 0.4386
vt 0.4693 0.4559
vt 0.3391 0.4708
vt 0.3724 0.4935
vt 0.3558 0.5176
vt 0.3193 0.4930
vt 0.3590 0.4485
vt 0.3890 0.4694
vt 0.3788 0.4263
vt 0.4056 0.4454
vt 0.3986 0.4040
vt 0.4222 0.4213
vt 0.1669 0.7841
vt 0.1104 0.7574
vt 0.0539 0.7308
vt 0.2235 0.8107
vt 0.7391 0.7056
vt 0.6834 0.7223
vt 0.6980 0.7482
vt 0.7561 0.7318
vt 0.7221 0.6794
vt 0.6687 0.6965
vt 0.7050 0.6532
vt 0.6541 0.6707
vt 0.6880 0.6270
vt 0.6394 0.6449
vt 0.6710 0.6008
vt 0.6248 0.6191
vt 0.6540 0.5746
vt 0.6102 0.5933
vt 0.8504 0.6722
vt 0.7948 0.6889
vt 0.8141 0.7155
vt 0.8722 0.6992
vt 0.8287 0.6452
vt 0.7754 0.6623
vt 0.8070 0.6182
vt 0.7560 0.6357
vt 0.7852 0.5912
vt 0.7366 0.6091
vt 0.7635 0.5643
vt 0.7173 0.5826
vt 0.7417 0.5373
vt 0.6979 0.5560
vt 0.6372 0.5189
vt 0.6003 0.5352
vt 0.6052 0.5643
vt 0.6456 0.5468
vt 0.6287 0.4910
vt 0.5954 0.5061
vt 0.6203 0.4632
vt 0.5905 0.4771
vt 0.6119 0.4353
vt 0.5856 0.4480
vt 0.7108 0.4863
vt 0.6740 0.5026
vt 0.6859 0.5293
vt 0.7263 0.5118
vt 0.6954 0.4608
vt 0.6621 0.4759
vt 0.6799 0.4353
vt 0.6501 0.4492
vt 0.6645 0.4098
vt 0.6382 0.4225
vt 0.8232 0.8257
vt 0.8836 0.8098
vt 0.9440 0.7938
vt 0.7627 0.8416
vn -0.0205 0.9996 0.0180
vn 0.6927 0.0527 -0.7193
vn 0.8290 0.0327 -0.5582
vn -0.0192 0.9996 0.0182
vn -0.0214 0.9996 0.0188
vn 0.6739 0.0294 -0.7382
vn -0.0223 0.9995 0.0197
vn 0.6269 0.0304 -0.7785
vn -0.0233 0.9995 0.0207
vn 0.3766 0.0265 -0.9260
vn -0.0244 0.9995 0.0217
vn -0.9458 -0.0301 0.3232
vn -0.0284 0.9994 0.0191
vn -0.8884 -0.0072 -0.4591
vn 0.9986 0.0206 0.0488
vn -0.0195 0.9996 0.0199
vn -0.0186 0.9996 0.0194
vn 0.9938 0.0238 -0.1082
vn 0.9701 0.0161 0.2423
vn -0.0204 0.9996 0.0208
vn 0.8721 0.0092 0.4892
vn -0.0212 0.9995 0.0217
vn 0.6722 -0.0010 0.7403
vn -0.0222 0.9995 0.0227
vn 0.4043 -0.0112 0.9145
vn -0.0232 0.9994 0.0237
vn -0.0345 0.9975 0.0619
vn -0.0264 0.9994 0.0221
vn -0.0361 0.9991 0.0186
vn -0.9533 -0.0159 -0.3014
vn -0.8724 -0.0071 -0.4887
vn -0.0330 0.9993 0.0170
vn -0.0398 0.9990 0.0205
vn -0.9892 -0.0298 -0.1433
vn -0.0443 0.9987 0.0228
vn -0.9992 -0.0349 -0.0177
vn -0.9835 -0.0392 0.1764
vn -0.9985 -0.0374 0.0399
vn -0.8532 -0.0359 0.5203
vn -0.0332 0.9992 0.0229
vn -0.0304 0.9993 0.0209
vn -0.8910 -0.0127 0.4537
vn -0.8325 -0.0381 0.5526
vn -0.0365 0.9990 0.0251
vn -0.8196 -0.0406 0.5715
vn -0.0407 0.9988 0.0280
vn -0.8148 -0.0419 0.5782
vn -0.8951 -0.0415 0.4438
vn 0.9602 0.0434 -0.2760
vn 0.9812 0.0247 -0.1913
vn 0.9868 0.0241 -0.1599
vn 0.9438 0.0266 -0.3293
vn -0.0234 -0.9996 -0.0139
vn -0.0238 -0.9996 -0.0129
vn -0.0226 -0.9996 -0.0134
vn -0.0222 -0.9996 -0.0144
vn -0.0244 -0.9996 -0.0146
vn -0.0249 -0.9996 -0.0136
vn -0.0255 -0.9995 -0.0153
vn -0.0260 -0.9995 -0.0143
vn -0.0267 -0.9995 -0.0161
vn -0.0272 -0.9995 -0.0150
vn -0.0280 -0.9995 -0.0169
vn -0.0285 -0.9995 -0.0158
vn -0.0314 -0.9994 -0.0137
vn -0.0319 -0.9994 -0.0123
vn -0.0224 -0.9996 -0.0169
vn -0.0228 -0.9996 -0.0160
vn -0.0218 -0.9996 -0.0157
vn -0.0215 -0.9996 -0.0161
vn -0.0233 -0.9995 -0.0176
vn -0.0238 -0.9996 -0.0167
vn -0.0244 -0.9995 -0.0184
vn -0.0248 -0.9995 -0.0175
vn -0.0254 -0.9995 -0.0192
vn -0.0259 -0.9995 -0.0183
vn -0.0266 -0.9994 -0.0201
vn -0.0271 -0.9994 -0.0191
vn -0.0291 -0.9994 -0.0188
vn -0.0300 -0.9994 -0.0169
vn -0.0389 -0.9991 -0.0117
vn -0.0396 -0.9991 -0.0093
vn -0.0363 -0.9993 -0.0085
vn -0.0356 -0.9993 -0.0107
vn -0.0428 -0.9990 -0.0129
vn -0.0436 -0.9990 -0.0102
vn -0.0477 -0.9987 -0.0144
vn -0.0486 -0.9987 -0.0114
vn -0.0503 -0.9986 -0.0155
vn -0.0519 -0.9986 -0.0121
vn -0.0356 -0.9992 -0.0187
vn -0.0368 -0.9992 -0.0164
vn -0.0337 -0.9993 -0.0150
vn -0.0326 -0.9993 -0.0171
vn -0.0392 -0.9990 -0.0206
vn -0.0405 -0.9990 -0.0181
vn -0.0435 -0.9988 -0.0229
vn -0.0450 -0.9988 -0.0201
vn -0.0462 -0.9986 -0.0242
vn -0.0475 -0.9986 -0.0213
vn -0.0214 -0.9996 -0.0150
vn -0.0213 -0.9996 -0.0156
vn -0.0212 -0.9996 -0.0158
vn -0.0215 -0.9996 -0.0147
usemtl Material.003
s 1
f 2/1/1 14/2/2 13/3/3 1/4/4
f 3/5/5 15/6/6 14/2/2 2/1/1
f 4/7/7 16/8/8 15/6/6 3/5/5
f 5/9/9 17/10/10 16/8/8 4/7/7
f 6/11/11 18/12/12 17/10/10 5/9/9
f 43/13/13 49/14/14 18/12/12 6/11/11
f 23/15/15 8/16/16 7/17/17 24/18/18
f 22/19/19 9/20/20 8/16/16 23/15/15
f 21/21/21 10/22/22 9/20/20 22/19/19
f 20/23/23 11/24/24 10/22/22 21/21/21
f 19/25/25 12/26/26 11/24/24 20/23/23
f 50/27/27 44/28/28 12/26/26 19/25/25
f 8/16/16 2/1/1 1/4/4 7/17/17
f 9/20/20 3/5/5 2/1/1 8/16/16
f 10/22/22 4/7/7 3/5/5 9/20/20
f 11/24/24 5/9/9 4/7/7 10/22/22
f 12/26/26 6/11/11 5/9/9 11/24/24
f 44/28/28 43/13/13 6/11/11 12/26/26
f 26/29/29 34/30/30 33/31/31 25/32/32
f 27/33/33 35/34/34 34/30/30 26/29/29
f 28/35/35 36/36/36 35/34/34 27/33/33
f 45/37/37 51/38/38 36/36/36 28/35/35
f 39/39/39 30/40/40 29/41/41 40/42/42
f 38/43/43 31/44/44 30/40/40 39/39/39
f 37/45/45 32/46/46 31/44/44 38/43/43
f 52/47/47 46/48/48 32/46/46 37/45/45
f 30/40/40 26/29/29 25/32/32 29/41/41
f 31/44/44 27/33/33 26/29/29 30/40/40
f 32/46/46 28/35/35 27/33/33 31/44/44
f 46/48/48 45/37/37 28/35/35 32/46/46
f 29/41/41 25/32/32 43/13/13 44/28/28
f 40/42/42 29/41/41 44/28/28 50/27/27
f 7/17/17 1/4/4 41/49/49 42/50/50
f 24/18/18 7/17/17 42/50/50 48/51/51
f 1/4/4 13/3/3 47/52/52 41/49/49
f 25/32/32 33/31/31 49/14/14 43/13/13
f 54/53/53 66/54/54 65/55/55 53/56/56
f 55/57/57 67/58/58 66/54/54 54/53/53
f 56/59/59 68/60/60 67/58/58 55/57/57
f 57/61/61 69/62/62 68/60/60 56/59/59
f 58/63/63 70/64/64 69/62/62 57/61/61
f 95/65/65 101/66/66 70/64/64 58/63/63
f 75/67/67 60/68/68 59/69/69 76/70/70
f 74/71/71 61/72/72 60/68/68 75/67/67
f 73/73/73 62/74/74 61/72/72 74/71/71
f 72/75/75 63/76/76 62/74/74 73/73/73
f 71/77/77 64/78/78 63/76/76 72/75/75
f 102/79/79 96/80/80 64/78/78 71/77/77
f 60/68/68 54/53/53 53/56/56 59/69/69
f 61/72/72 55/57/57 54/53/53 60/68/68
f 62/74/74 56/59/59 55/57/57 61/72/72
f 63/76/76 57/61/61 56/59/59 62/74/74
f 64/78/78 58/63/63 57/61/61 63/76/76
f 96/80/80 95/65/65 58/63/63 64/78/78
f 78/81/81 86/82/82 85/83/83 77/84/84
f 79/85/85 87/86/86 86/82/82 78/81/81
f 80/87/87 88/88/88 87/86/86 79/85/85
f 97/89/89 103/90/90 88/88/88 80/87/87
f 91/91/91 82/92/92 81/93/93 92/94/94
f 90/95/95 83/96/96 82/92/92 91/91/91
f 89/97/97 84/98/98 83/96/96 90/95/95
f 104/99/99 98/100/100 84/98/98 89/97/97
f 82/92/92 78/81/81 77/84/84 81/93/93
f 83/96/96 79/85/85 78/81/81 82/92/92
f 84/98/98 80/87/87 79/85/85 83/96/96
f 98/100/100 97/89/89 80/87/87 84/98/98
f 81/93/93 77/84/84 95/65/65 96/80/80
f 92/94/94 81/93/93 96/80/80 102/79/79
f 59/69/69 53/56/56 93/101/101 94/102/102
f 76/70/70 59/69/69 94/102/102 100/103/103
f 53/56/56 65/55/55 99/104/104 93/101/101
f 77/84/84 85/83/83 101/66/66 95/65/65
f 14/2/2 15/6/6 16/8/8 17/10/10 18/12/12 49/14/14 33/31/31 34/30/30 35/34/34 36/36/36 51/38/38 45/37/37 46/48/48 52/47/47 37/45/45 38/43/43 39/39/39 40/42/42 50/27/27 19/25/25 20/23/23 21/21/21 22/19/19 23/15/15 24/18/18 48/51/51 42/50/50 41/49/49 47/52/52 13/3/3
