# Blender v2.77 (sub 0) OBJ File: 'human2.blend'
# www.blender.org
mtllib humanhair5.mtl
o HumanFemale.004_meHumanFemale.004
v 0.439199 1.753243 0.038727
v 0.439199 1.757976 -0.102803
v 0.501256 1.780154 0.055161
v 0.501256 1.777320 -0.112572
v 0.563312 1.757976 -0.102803
v 0.563312 1.753243 0.038727
v 0.430062 1.762062 -0.029721
v 0.572450 1.762062 -0.029721
v 0.501256 1.793599 -0.032086
v 0.563312 1.757976 -0.102803
v 0.563312 1.753243 0.038727
v 0.572450 1.762062 -0.029721
v 0.563312 1.753243 0.038727
v 0.572450 1.762062 -0.029721
v 0.685597 1.757976 -0.129945
v 0.694734 1.762062 -0.010120
v 0.685597 1.753243 0.075288
v 0.863198 1.753243 0.189388
v 0.872335 1.762062 0.055768
v 0.876950 1.757976 -0.200154
v 0.866117 1.761772 -0.042995
v 0.587769 1.753243 0.046039
v 0.612226 1.753243 0.053351
v 0.636683 1.753243 0.060663
v 0.661140 1.753243 0.067976
v 0.670277 1.762062 -0.014040
v 0.645820 1.762062 -0.017960
v 0.621364 1.762062 -0.021881
v 0.596907 1.762062 -0.025801
v 0.710968 1.753243 0.091588
v 0.736340 1.753243 0.107888
v 0.761711 1.753243 0.124188
v 0.787083 1.753243 0.140488
v 0.812455 1.753243 0.156788
v 0.837826 1.753243 0.173088
v 0.846964 1.762062 0.046355
v 0.821592 1.762062 0.036943
v 0.796220 1.762062 0.027530
v 0.770849 1.762062 0.018118
v 0.745477 1.762062 0.008705
v 0.720106 1.762062 -0.000707
v 0.566358 1.756183 0.015911
v 0.569404 1.759122 -0.006905
v 0.566358 1.756183 0.015911
v 0.569404 1.759122 -0.006905
v 0.866243 1.756183 0.144848
v 0.869289 1.759122 0.100308
v 0.688643 1.756183 0.046818
v 0.691689 1.759122 0.018349
v 0.590815 1.756183 0.022093
v 0.593861 1.759122 -0.001854
v 0.615272 1.756183 0.028274
v 0.618318 1.759122 0.003197
v 0.639729 1.756183 0.034456
v 0.642775 1.759122 0.008248
v 0.664186 1.756183 0.040637
v 0.667232 1.759122 0.013299
v 0.714014 1.756183 0.060823
v 0.717060 1.759122 0.030058
v 0.739386 1.756183 0.074827
v 0.742432 1.759122 0.041766
v 0.764757 1.756183 0.088831
v 0.767803 1.759122 0.053474
v 0.790129 1.756183 0.102835
v 0.793175 1.759122 0.065183
v 0.815500 1.756183 0.116840
v 0.818546 1.759122 0.076891
v 0.840872 1.756183 0.130844
v 0.843918 1.759122 0.088600
v 0.566358 1.759338 -0.078442
v 0.569404 1.760700 -0.054082
v 0.688643 1.759338 -0.090003
v 0.691689 1.760700 -0.050062
v 0.873339 1.759241 -0.147768
v 0.869728 1.760507 -0.095381
v 0.661140 1.757976 -0.124517
v 0.636683 1.757976 -0.119088
v 0.612226 1.757976 -0.113660
v 0.587769 1.757976 -0.108231
v 0.596907 1.762062 -0.025801
v 0.621364 1.762062 -0.021881
v 0.645820 1.762062 -0.017960
v 0.670277 1.762062 -0.014040
v 0.590815 1.759338 -0.080754
v 0.615272 1.759338 -0.083067
v 0.639729 1.759338 -0.085379
v 0.664186 1.759338 -0.087691
v 0.593861 1.760700 -0.053278
v 0.618318 1.760700 -0.052474
v 0.642775 1.760700 -0.051670
v 0.667232 1.760700 -0.050866
v 0.849614 1.757976 -0.190124
v 0.822278 1.757976 -0.180094
v 0.794942 1.757976 -0.170065
v 0.767606 1.757976 -0.160035
v 0.740269 1.757976 -0.150005
v 0.712933 1.757976 -0.139975
v 0.719218 1.762020 -0.014816
v 0.743701 1.761979 -0.019513
v 0.768184 1.761938 -0.024209
v 0.792668 1.761896 -0.028906
v 0.817151 1.761855 -0.033602
v 0.841634 1.761814 -0.038299
v 0.715028 1.759324 -0.098256
v 0.741413 1.759310 -0.106508
v 0.767798 1.759296 -0.114760
v 0.794184 1.759283 -0.123012
v 0.820569 1.759269 -0.131264
v 0.846954 1.759255 -0.139516
v 0.717123 1.760672 -0.056536
v 0.742557 1.760645 -0.063010
v 0.767991 1.760617 -0.069484
v 0.793426 1.760590 -0.075959
v 0.818860 1.760562 -0.082433
v 0.844294 1.760534 -0.088907
vt 0.2742 0.7829
vt 0.3009 0.7862
vt 0.3083 0.8156
vt 0.2788 0.8210
vt 0.2491 0.7930
vt 0.2489 0.8233
vt 0.2565 0.8545
vt 0.2830 0.8556
vt 0.3083 0.8477
vt 0.2745 0.7829
vt 0.2439 0.7829
vt 0.2439 0.7829
vt 0.2541 0.7829
vt 0.2643 0.7829
vt 0.2745 0.7829
vt 0.2153 0.7771
vt 0.2153 0.7771
vt 0.2248 0.7790
vt 0.2343 0.7809
vt 0.2153 0.7771
vt 0.2248 0.7790
vt 0.2248 0.7790
vt 0.2153 0.7771
vt 0.2153 0.7771
vt 0.2248 0.7790
vt 0.2541 0.7829
vt 0.2439 0.7829
vt 0.2439 0.7829
vt 0.2541 0.7829
vt 0.2248 0.7790
vt 0.2153 0.7771
vt 0.2153 0.7771
vt 0.2248 0.7790
vt 0.2541 0.7829
vt 0.2439 0.7829
vt 0.2439 0.7829
vt 0.2541 0.7829
vt 0.2153 0.7771
vt 0.2248 0.7790
vt 0.2153 0.7771
vt 0.2248 0.7790
vt 0.2153 0.7771
vt 0.2248 0.7790
vt 0.2153 0.7771
vt 0.2248 0.7790
vt 0.2153 0.7771
vt 0.2248 0.7790
vt 0.2153 0.7771
vt 0.2248 0.7790
vt 0.2153 0.7771
vt 0.2248 0.7790
vt 0.2153 0.7771
vt 0.2248 0.7790
vt 0.2439 0.7829
vt 0.2343 0.7809
vt 0.2343 0.7809
vt 0.2439 0.7829
vt 0.2439 0.7829
vt 0.2343 0.7809
vt 0.2439 0.7829
vt 0.2343 0.7809
vt 0.2439 0.7829
vt 0.2343 0.7809
vt 0.2439 0.7829
vt 0.2343 0.7809
vt 0.2343 0.7809
vt 0.2439 0.7829
vt 0.2343 0.7809
vt 0.2343 0.7809
vt 0.2439 0.7829
vt 0.2439 0.7829
vt 0.2343 0.7809
vt 0.2439 0.7829
vt 0.2343 0.7809
vt 0.2439 0.7829
vt 0.2343 0.7809
vt 0.2343 0.7809
vt 0.2439 0.7829
vt 0.2745 0.7829
vt 0.2643 0.7829
vt 0.2643 0.7829
vt 0.2745 0.7829
vt 0.2745 0.7829
vt 0.2643 0.7829
vt 0.2643 0.7829
vt 0.2745 0.7829
vt 0.2541 0.7829
vt 0.2643 0.7829
vt 0.2541 0.7829
vt 0.2643 0.7829
vt 0.2541 0.7829
vt 0.2643 0.7829
vt 0.2745 0.7829
vt 0.2745 0.7829
vt 0.2745 0.7829
vt 0.2439 0.7829
vt 0.2439 0.7829
vt 0.2439 0.7829
vt 0.2541 0.7829
vt 0.2643 0.7829
vt 0.2541 0.7829
vt 0.2643 0.7829
vt 0.2541 0.7829
vt 0.2643 0.7829
vt 0.2541 0.7829
vt 0.2643 0.7829
vt 0.2541 0.7829
vt 0.2643 0.7829
vt 0.2745 0.7829
vt 0.2745 0.7829
vt 0.2745 0.7829
vt 0.2745 0.7829
vt 0.2745 0.7829
vt 0.2439 0.7829
vt 0.2439 0.7829
vt 0.2439 0.7829
vt 0.2439 0.7829
vt 0.2439 0.7829
vn 0.0000 0.9859 0.1674
vn 0.9693 0.2366 -0.0669
vn 0.9300 -0.0593 -0.3627
vn 0.0000 1.0000 0.0027
vn -0.4104 0.8990 0.1526
vn -0.3925 0.9197 0.0086
vn -0.3644 0.9201 -0.1437
vn 0.0000 0.9880 -0.1543
vn 0.7024 0.1637 -0.6926
vn 0.5388 -0.6865 0.4882
vn -0.0208 0.0960 -0.9951
vn -0.0423 0.0963 -0.9944
vn -0.0522 0.2842 -0.9573
vn 0.4021 -0.6807 0.6123
vn -0.0232 0.6936 0.7199
vn -0.0202 0.6627 0.7486
vn -0.0263 0.9942 0.1040
vn -0.0285 0.9942 0.1035
vn -0.0444 0.9943 0.0965
vn -0.0382 0.9945 0.0977
vn 0.0012 0.9993 -0.0371
vn 0.0036 0.9993 -0.0370
vn -0.0151 0.9993 0.0343
vn -0.0029 0.9994 -0.0341
vn -0.0368 0.9971 0.0667
vn -0.0394 0.9970 0.0660
vn -0.0387 0.9971 0.0648
vn -0.0367 0.9972 0.0650
vn -0.0054 0.9996 -0.0255
vn -0.0043 0.9996 -0.0256
vn -0.0042 0.9997 -0.0249
vn -0.0055 0.9997 -0.0250
vn -0.0324 0.9925 0.1175
vn -0.0298 0.9926 0.1181
vn -0.0310 0.9932 0.1124
vn -0.0285 0.9932 0.1130
vn -0.0297 0.9937 0.1078
vn -0.0273 0.9937 0.1083
vn -0.0531 0.9946 0.0889
vn -0.0498 0.9947 0.0902
vn -0.0496 0.9953 0.0831
vn -0.0465 0.9953 0.0843
vn -0.0466 0.9958 0.0780
vn -0.0437 0.9959 0.0791
vn -0.0439 0.9963 0.0736
vn -0.0411 0.9964 0.0745
vn -0.0415 0.9967 0.0696
vn -0.0389 0.9967 0.0704
vn -0.0298 0.9970 0.0715
vn -0.0327 0.9969 0.0709
vn -0.0310 0.9973 0.0672
vn -0.0282 0.9973 0.0677
vn -0.0315 0.9966 0.0757
vn -0.0346 0.9966 0.0750
vn -0.0335 0.9962 0.0804
vn -0.0368 0.9961 0.0797
vn -0.0357 0.9957 0.0858
vn -0.0392 0.9956 0.0850
vn -0.0383 0.9950 0.0920
vn -0.0420 0.9949 0.0910
vn -0.0320 0.9946 0.0984
vn -0.0200 0.9938 0.1092
vn -0.0225 0.9938 0.1089
vn -0.0216 0.9943 0.1045
vn -0.0192 0.9943 0.1049
vn -0.0209 0.9933 0.1140
vn -0.0234 0.9932 0.1136
vn -0.0219 0.9926 0.1192
vn -0.0245 0.9926 0.1188
vn -0.0148 0.6569 0.7538
vn -0.0167 0.6625 0.7488
vn -0.0309 0.9974 0.0654
vn -0.0273 0.9975 0.0656
vn -0.0084 0.9996 -0.0256
vn -0.0075 0.9996 -0.0257
vn -0.0075 0.9996 -0.0251
vn -0.0083 0.9996 -0.0252
vn -0.0057 0.9993 -0.0364
vn -0.0034 0.9993 -0.0367
vn -0.0064 0.9994 -0.0339
vn -0.0085 0.9994 -0.0336
vn 0.0016 0.9987 -0.0498
vn -0.0046 0.9988 -0.0491
vn 0.0015 0.9990 -0.0447
vn -0.0042 0.9990 -0.0442
vn 0.0013 0.9991 -0.0406
vn -0.0038 0.9992 -0.0401
vn -0.0077 0.9988 -0.0486
vn -0.0069 0.9990 -0.0437
vn -0.0063 0.9992 -0.0397
vn 0.0048 0.9987 -0.0497
vn 0.0043 0.9990 -0.0446
vn 0.0039 0.9991 -0.0405
vn -0.0070 0.9995 -0.0320
vn -0.0094 0.9994 -0.0318
vn -0.0067 0.9995 -0.0305
vn -0.0090 0.9995 -0.0304
vn -0.0063 0.9995 -0.0291
vn -0.0085 0.9995 -0.0291
vn -0.0060 0.9996 -0.0279
vn -0.0082 0.9996 -0.0279
vn -0.0057 0.9996 -0.0267
vn -0.0078 0.9996 -0.0267
vn -0.0105 0.9994 -0.0316
vn -0.0100 0.9995 -0.0302
vn -0.0096 0.9995 -0.0290
vn -0.0092 0.9995 -0.0278
vn -0.0088 0.9996 -0.0266
vn -0.0058 0.9995 -0.0321
vn -0.0055 0.9995 -0.0306
vn -0.0052 0.9995 -0.0292
vn -0.0049 0.9996 -0.0279
vn -0.0046 0.9996 -0.0267
usemtl Material.003
s 1
f 3/1/1 6/2/2 8/3/3 9/4/4
f 1/5/5 3/1/1 9/4/4 7/6/6
f 2/7/7 7/6/6 9/4/4 4/8/8
f 4/8/8 9/4/4 8/3/3 5/9/9
f 5/10/9 8/11/3 12/12/10 71/13/11 70/14/12 10/15/13
f 8/11/3 6/16/2 11/17/14 42/18/14 43/19/14 12/12/10
f 42/18/14 11/17/14 13/20/15 44/21/16
f 56/22/17 25/23/18 17/24/19 48/25/20
f 91/26/21 83/27/22 16/28/23 73/29/24
f 68/30/25 35/31/26 18/32/27 46/33/28
f 115/34/29 103/35/30 21/36/31 75/37/32
f 44/21/16 13/20/15 22/38/33 50/39/34
f 50/39/34 22/38/33 23/40/35 52/41/36
f 52/41/36 23/40/35 24/42/37 54/43/38
f 54/43/38 24/42/37 25/23/18 56/22/17
f 48/25/20 17/24/19 30/44/39 58/45/40
f 58/45/40 30/44/39 31/46/41 60/47/42
f 60/47/42 31/46/41 32/48/43 62/49/44
f 62/49/44 32/48/43 33/50/45 64/51/46
f 64/51/46 33/50/45 34/52/47 66/53/48
f 66/53/48 34/52/47 35/31/26 68/30/25
f 37/54/49 67/55/50 69/56/51 36/57/52
f 67/55/50 66/53/48 68/30/25 69/56/51
f 38/58/53 65/59/54 67/55/50 37/54/49
f 65/59/54 64/51/46 66/53/48 67/55/50
f 39/60/55 63/61/56 65/59/54 38/58/53
f 63/61/56 62/49/44 64/51/46 65/59/54
f 40/62/57 61/63/58 63/61/56 39/60/55
f 61/63/58 60/47/42 62/49/44 63/61/56
f 41/64/59 59/65/60 61/63/58 40/62/57
f 59/65/60 58/45/40 60/47/42 61/63/58
f 16/28/23 49/66/61 59/65/60 41/64/59
f 49/66/61 48/25/20 58/45/40 59/65/60
f 27/67/62 55/68/63 57/69/64 26/70/65
f 55/68/63 54/43/38 56/22/17 57/69/64
f 28/71/66 53/72/67 55/68/63 27/67/62
f 53/72/67 52/41/36 54/43/38 55/68/63
f 29/73/68 51/74/69 53/72/67 28/71/66
f 51/74/69 50/39/34 52/41/36 53/72/67
f 14/75/70 45/76/71 51/74/69 29/73/68
f 45/76/71 44/21/16 50/39/34 51/74/69
f 36/57/52 69/56/51 47/77/72 19/78/73
f 69/56/51 68/30/25 46/33/28 47/77/72
f 26/70/65 57/69/64 49/66/61 16/28/23
f 57/69/64 56/22/17 48/25/20 49/66/61
f 12/12/10 43/19/14 45/76/71 14/75/70
f 43/19/14 42/18/14 44/21/16 45/76/71
f 92/79/74 109/80/75 74/81/76 20/82/77
f 109/80/75 115/34/29 75/37/32 74/81/76
f 76/83/78 87/84/79 72/85/80 15/86/81
f 87/84/79 91/26/21 73/29/24 72/85/80
f 70/14/12 71/13/11 88/87/82 84/88/83
f 84/88/83 88/87/82 89/89/84 85/90/85
f 85/90/85 89/89/84 90/91/86 86/92/87
f 86/92/87 90/91/86 91/26/21 87/84/79
f 10/15/13 70/14/12 84/88/83 79/93/88
f 79/93/88 84/88/83 85/90/85 78/94/89
f 78/94/89 85/90/85 86/92/87 77/95/90
f 77/95/90 86/92/87 87/84/79 76/83/78
f 71/13/11 12/12/10 80/96/91 88/87/82
f 88/87/82 80/96/91 81/97/92 89/89/84
f 89/89/84 81/97/92 82/98/93 90/91/86
f 90/91/86 82/98/93 83/27/22 91/26/21
f 72/85/80 73/29/24 110/99/94 104/100/95
f 104/100/95 110/99/94 111/101/96 105/102/97
f 105/102/97 111/101/96 112/103/98 106/104/99
f 106/104/99 112/103/98 113/105/100 107/106/101
f 107/106/101 113/105/100 114/107/102 108/108/103
f 108/108/103 114/107/102 115/34/29 109/80/75
f 15/86/81 72/85/80 104/100/95 97/109/104
f 97/109/104 104/100/95 105/102/97 96/110/105
f 96/110/105 105/102/97 106/104/99 95/111/106
f 95/111/106 106/104/99 107/106/101 94/112/107
f 94/112/107 107/106/101 108/108/103 93/113/108
f 93/113/108 108/108/103 109/80/75 92/79/74
f 73/29/24 16/28/23 98/114/109 110/99/94
f 110/99/94 98/114/109 99/115/110 111/101/96
f 111/101/96 99/115/110 100/116/111 112/103/98
f 112/103/98 100/116/111 101/117/112 113/105/100
f 113/105/100 101/117/112 102/118/113 114/107/102
f 114/107/102 102/118/113 103/35/30 115/34/29
