# Blender v2.77 (sub 0) OBJ File: 'human2.blend'
# www.blender.org
mtllib humanhair5.mtl
o HumanFemale.004_meHumanFemale.004
v 0.439199 1.753243 0.038727
v 0.439199 1.757976 -0.102803
v 0.501256 1.780154 0.055161
v 0.501256 1.777320 -0.112572
v 0.563312 1.757976 -0.102803
v 0.563312 1.753243 0.038727
v 0.430062 1.762062 -0.029721
v 0.572450 1.762062 -0.029721
v 0.501256 1.793599 -0.032086
v 0.563312 1.757976 -0.102803
v 0.563312 1.753243 0.038727
v 0.572450 1.762062 -0.029721
v 0.563312 1.753243 0.038727
v 0.572450 1.762062 -0.029721
v 0.685597 1.757976 -0.129945
v 0.694734 1.762062 -0.010120
v 0.685597 1.753243 0.075288
v 0.863198 1.753243 0.189388
v 0.872335 1.762062 0.055768
v 0.876950 1.757976 -0.200154
v 0.866117 1.761772 -0.042995
v 0.587769 1.753243 0.046039
v 0.612226 1.753243 0.053351
v 0.636683 1.753243 0.060663
v 0.661140 1.753243 0.067976
v 0.670277 1.762062 -0.014040
v 0.645820 1.762062 -0.017960
v 0.621364 1.762062 -0.021881
v 0.596907 1.762062 -0.025801
v 0.710968 1.753243 0.091588
v 0.736340 1.753243 0.107888
v 0.761711 1.753243 0.124188
v 0.787083 1.753243 0.140488
v 0.812455 1.753243 0.156788
v 0.837826 1.753243 0.173088
v 0.846964 1.762062 0.046355
v 0.821592 1.762062 0.036943
v 0.796220 1.762062 0.027530
v 0.770849 1.762062 0.018118
v 0.745477 1.762062 0.008705
v 0.720106 1.762062 -0.000707
v 0.566358 1.756183 0.015911
v 0.569404 1.759122 -0.006905
v 0.566358 1.756183 0.015911
v 0.569404 1.759122 -0.006905
v 0.866243 1.756183 0.144848
v 0.869289 1.759122 0.100308
v 0.688643 1.756183 0.046818
v 0.691689 1.759122 0.018349
v 0.590815 1.756183 0.022093
v 0.593861 1.759122 -0.001854
v 0.615272 1.756183 0.028274
v 0.618318 1.759122 0.003197
v 0.639729 1.756183 0.034456
v 0.642775 1.759122 0.008248
v 0.664186 1.756183 0.040637
v 0.667232 1.759122 0.013299
v 0.714014 1.756183 0.060823
v 0.717060 1.759122 0.030058
v 0.739386 1.756183 0.074827
v 0.742432 1.759122 0.041766
v 0.764757 1.756183 0.088831
v 0.767803 1.759122 0.053474
v 0.790129 1.756183 0.102835
v 0.793175 1.759122 0.065183
v 0.815500 1.756183 0.116840
v 0.818546 1.759122 0.076891
v 0.840872 1.756183 0.130844
v 0.843918 1.759122 0.088600
v 0.566358 1.759338 -0.078442
v 0.569404 1.760700 -0.054082
v 0.688643 1.759338 -0.090003
v 0.691689 1.760700 -0.050062
v 0.873339 1.759241 -0.147768
v 0.869728 1.760507 -0.095381
v 0.661140 1.757976 -0.124517
v 0.636683 1.757976 -0.119088
v 0.612226 1.757976 -0.113660
v 0.587769 1.757976 -0.108231
v 0.596907 1.762062 -0.025801
v 0.621364 1.762062 -0.021881
v 0.645820 1.762062 -0.017960
v 0.670277 1.762062 -0.014040
v 0.590815 1.759338 -0.080754
v 0.615272 1.759338 -0.083067
v 0.639729 1.759338 -0.085379
v 0.664186 1.759338 -0.087691
v 0.593861 1.760700 -0.053278
v 0.618318 1.760700 -0.052474
v 0.642775 1.760700 -0.051670
v 0.667232 1.760700 -0.050866
v 0.849614 1.757976 -0.190124
v 0.822278 1.757976 -0.180094
v 0.794942 1.757976 -0.170065
v 0.767606 1.757976 -0.160035
v 0.740269 1.757976 -0.150005
v 0.712933 1.757976 -0.139975
v 0.719218 1.762020 -0.014816
v 0.743701 1.761979 -0.019513
v 0.768184 1.761938 -0.024209
v 0.792668 1.761896 -0.028906
v 0.817151 1.761855 -0.033602
v 0.841634 1.761814 -0.038299
v 0.715028 1.759324 -0.098256
v 0.741413 1.759310 -0.106508
v 0.767798 1.759296 -0.114760
v 0.794184 1.759283 -0.123012
v 0.820569 1.759269 -0.131264
v 0.846954 1.759255 -0.139516
v 0.717123 1.760672 -0.056536
v 0.742557 1.760645 -0.063010
v 0.767991 1.760617 -0.069484
v 0.793426 1.760590 -0.075959
v 0.818860 1.760562 -0.082433
v 0.844294 1.760534 -0.088907
v 0.159906 1.761521 -0.088643
v 0.185340 1.761549 -0.082168
v 0.210774 1.761576 -0.075694
v 0.236209 1.761604 -0.069220
v 0.261643 1.761631 -0.062746
v 0.287077 1.761659 -0.056271
v 0.157246 1.760242 -0.139251
v 0.183631 1.760256 -0.130999
v 0.210016 1.760270 -0.122747
v 0.236401 1.760283 -0.114495
v 0.262787 1.760297 -0.106243
v 0.289172 1.760311 -0.097991
v 0.162566 1.762800 -0.038034
v 0.187049 1.762842 -0.033338
v 0.211532 1.762883 -0.028641
v 0.236016 1.762924 -0.023945
v 0.260499 1.762966 -0.019248
v 0.284982 1.763007 -0.014552
v 0.291267 1.758963 -0.139711
v 0.263931 1.758963 -0.149740
v 0.236594 1.758963 -0.159770
v 0.209258 1.758963 -0.169800
v 0.181922 1.758963 -0.179830
v 0.154586 1.758963 -0.189860
v 0.336968 1.761687 -0.050601
v 0.361425 1.761687 -0.051405
v 0.385882 1.761687 -0.052209
v 0.410339 1.761687 -0.053013
v 0.340014 1.760325 -0.087427
v 0.364471 1.760325 -0.085114
v 0.388928 1.760325 -0.082802
v 0.413385 1.760325 -0.080490
v 0.333923 1.763048 -0.013775
v 0.358379 1.763048 -0.017696
v 0.382836 1.763048 -0.021616
v 0.407293 1.763048 -0.025536
v 0.416431 1.758963 -0.107967
v 0.391974 1.758963 -0.113395
v 0.367517 1.758963 -0.118824
v 0.343060 1.758963 -0.124252
v 0.134472 1.761494 -0.095117
v 0.130861 1.760228 -0.147503
v 0.312511 1.761687 -0.049797
v 0.315557 1.760325 -0.089739
v 0.434796 1.761687 -0.053817
v 0.437842 1.760325 -0.078178
v 0.160282 1.760109 0.088864
v 0.163328 1.757170 0.131108
v 0.185654 1.760109 0.077156
v 0.188700 1.757170 0.117104
v 0.211025 1.760109 0.065447
v 0.214071 1.757170 0.103100
v 0.236397 1.760109 0.053739
v 0.239443 1.757170 0.089096
v 0.261768 1.760109 0.042031
v 0.264814 1.757170 0.075091
v 0.287140 1.760109 0.030322
v 0.290186 1.757170 0.061087
v 0.336968 1.760109 0.013563
v 0.340014 1.757170 0.040902
v 0.361425 1.760109 0.008512
v 0.364471 1.757170 0.034720
v 0.385882 1.760109 0.003461
v 0.388928 1.757170 0.028539
v 0.410339 1.760109 -0.001589
v 0.413385 1.757170 0.022357
v 0.312511 1.760109 0.018614
v 0.315557 1.757170 0.047083
v 0.134911 1.760109 0.100573
v 0.137957 1.757170 0.145113
v 0.434796 1.760109 -0.006640
v 0.437842 1.757170 0.016176
v 0.434796 1.760109 -0.006640
v 0.437842 1.757170 0.016176
v 0.284094 1.763048 -0.000443
v 0.258722 1.763048 0.008970
v 0.233351 1.763048 0.018382
v 0.207980 1.763048 0.027795
v 0.182608 1.763048 0.037207
v 0.157236 1.763048 0.046620
v 0.166374 1.754230 0.173353
v 0.191745 1.754230 0.157053
v 0.217117 1.754230 0.140752
v 0.242489 1.754230 0.124452
v 0.267860 1.754230 0.108152
v 0.293231 1.754230 0.091852
v 0.407293 1.763048 -0.025536
v 0.382836 1.763048 -0.021616
v 0.358379 1.763048 -0.017696
v 0.333923 1.763048 -0.013775
v 0.343060 1.754230 0.068240
v 0.367517 1.754230 0.060928
v 0.391974 1.754230 0.053616
v 0.416431 1.754230 0.046304
v 0.138083 1.762759 -0.042731
v 0.127250 1.758963 -0.199889
v 0.131865 1.763048 0.056032
v 0.141002 1.754230 0.189653
v 0.318603 1.754230 0.075552
v 0.309466 1.763048 -0.009855
v 0.318603 1.758963 -0.129681
v 0.431750 1.763048 -0.029456
v 0.440888 1.754230 0.038992
v 0.431750 1.763048 -0.029456
v 0.440888 1.754230 0.038992
v 0.440888 1.758963 -0.102538
v 0.431750 1.763048 -0.029456
v 0.440888 1.754230 0.038992
v 0.440888 1.758963 -0.102538
vt 0.5141 0.5814
vt 0.4349 0.5591
vt 0.4234 0.4722
vt 0.5142 0.4708
vt 0.5933 0.5594
vt 0.6051 0.4725
vt 0.5935 0.3791
vt 0.5144 0.3674
vt 0.4352 0.3789
vt 0.4234 0.4722
vt 0.4273 0.4411
vt 0.4313 0.4100
vt 0.4352 0.3789
vt 0.4349 0.5591
vt 0.4311 0.5302
vt 0.4272 0.5012
vt 0.4349 0.5591
vt 0.4311 0.5302
vt 0.3062 0.5615
vt 0.3101 0.5962
vt 0.2788 0.6055
vt 0.2750 0.5694
vt 0.3025 0.4450
vt 0.2985 0.4920
vt 0.2673 0.4970
vt 0.2713 0.4460
vt 0.0806 0.6762
vt 0.0844 0.7299
vt 0.0520 0.7507
vt 0.0482 0.6940
vt 0.0767 0.3962
vt 0.0800 0.4608
vt 0.0487 0.4548
vt 0.0442 0.3879
vt 0.4037 0.5684
vt 0.3999 0.5380
vt 0.3725 0.5777
vt 0.3686 0.5458
vt 0.3413 0.5870
vt 0.3374 0.5537
vt 0.2464 0.6263
vt 0.2426 0.5872
vt 0.2140 0.6470
vt 0.2102 0.6050
vt 0.1816 0.6677
vt 0.1778 0.6228
vt 0.1492 0.6885
vt 0.1454 0.6406
vt 0.1168 0.7092
vt 0.1130 0.6584
vt 0.1054 0.5568
vt 0.1092 0.6076
vt 0.0768 0.6225
vt 0.0730 0.5687
vt 0.1378 0.5448
vt 0.1416 0.5927
vt 0.1702 0.5329
vt 0.1740 0.5778
vt 0.2026 0.5209
vt 0.2064 0.5629
vt 0.2350 0.5090
vt 0.2388 0.5481
vt 0.2712 0.5332
vt 0.3298 0.4871
vt 0.3336 0.5204
vt 0.3024 0.5268
vt 0.2985 0.4920
vt 0.3610 0.4821
vt 0.3648 0.5140
vt 0.3922 0.4772
vt 0.3960 0.5076
vt 0.4234 0.4722
vt 0.4272 0.5012
vt 0.0444 0.6374
vt 0.0406 0.5807
vt 0.0701 0.2670
vt 0.0734 0.3316
vt 0.0397 0.3210
vt 0.0352 0.2542
vt 0.3104 0.3510
vt 0.3065 0.3980
vt 0.2753 0.3950
vt 0.2792 0.3440
vt 0.3961 0.4421
vt 0.4001 0.4070
vt 0.3649 0.4431
vt 0.3689 0.4040
vt 0.3337 0.4441
vt 0.3377 0.4010
vt 0.4040 0.3719
vt 0.3728 0.3650
vt 0.3416 0.3580
vt 0.3922 0.4772
vt 0.3610 0.4821
vt 0.3298 0.4871
vt 0.2389 0.4377
vt 0.2416 0.3845
vt 0.2064 0.4294
vt 0.2080 0.3739
vt 0.1740 0.4211
vt 0.1743 0.3633
vt 0.1415 0.4128
vt 0.1407 0.3527
vt 0.1091 0.4045
vt 0.1070 0.3422
vt 0.2444 0.3312
vt 0.2095 0.3184
vt 0.1746 0.3055
vt 0.1398 0.2927
vt 0.1049 0.2799
vt 0.2361 0.4910
vt 0.2049 0.4849
vt 0.1737 0.4789
vt 0.1424 0.4729
vt 0.1112 0.4668
vt 0.9174 0.4061
vt 0.9151 0.4684
vt 0.9464 0.4624
vt 0.9498 0.3978
vt 0.8849 0.4143
vt 0.8839 0.4743
vt 0.8525 0.4225
vt 0.8526 0.4803
vt 0.8200 0.4307
vt 0.8214 0.4862
vt 0.7875 0.4389
vt 0.7901 0.4922
vt 0.7551 0.4471
vt 0.7589 0.4981
vt 0.9219 0.2814
vt 0.9197 0.3437
vt 0.9533 0.3333
vt 0.9568 0.2687
vt 0.8870 0.2942
vt 0.8860 0.3542
vt 0.8521 0.3069
vt 0.8523 0.3647
vt 0.8172 0.3196
vt 0.8186 0.3752
vt 0.7823 0.3324
vt 0.7849 0.3856
vt 0.7474 0.3451
vt 0.7513 0.3961
vt 0.6927 0.4450
vt 0.6965 0.4880
vt 0.7277 0.4931
vt 0.7239 0.4460
vt 0.6615 0.4439
vt 0.6653 0.4830
vt 0.6303 0.4428
vt 0.6341 0.4779
vt 0.5991 0.4417
vt 0.6029 0.4729
vt 0.6850 0.3589
vt 0.6888 0.4019
vt 0.7201 0.3990
vt 0.7162 0.3520
vt 0.6538 0.3657
vt 0.6576 0.4048
vt 0.6226 0.3726
vt 0.6264 0.4077
vt 0.5914 0.3795
vt 0.5952 0.4106
vt 0.9823 0.3896
vt 0.9870 0.3228
vt 0.9917 0.2559
vt 0.5990 0.5018
vt 0.5950 0.5308
vt 0.5950 0.5308
vt 0.5990 0.5018
vt 0.6029 0.4729
vt 0.7238 0.5278
vt 0.7198 0.5625
vt 0.7510 0.5704
vt 0.7549 0.5343
vt 0.7277 0.4931
vt 0.9490 0.6241
vt 0.9451 0.6778
vt 0.9774 0.6957
vt 0.9814 0.6391
vt 0.9530 0.5704
vt 0.9854 0.5824
vt 0.6262 0.5387
vt 0.6302 0.5083
vt 0.6341 0.4779
vt 0.6574 0.5466
vt 0.6614 0.5148
vt 0.6653 0.4830
vt 0.6886 0.5546
vt 0.6926 0.5213
vt 0.6965 0.4880
vt 0.7834 0.5883
vt 0.7873 0.5492
vt 0.7912 0.5101
vt 0.8157 0.6062
vt 0.8196 0.5642
vt 0.8236 0.5222
vt 0.8480 0.6241
vt 0.8520 0.5792
vt 0.8559 0.5342
vt 0.8804 0.6420
vt 0.8843 0.5942
vt 0.8883 0.5463
vt 0.9127 0.6599
vt 0.9167 0.6091
vt 0.9206 0.5583
vt 0.9088 0.7107
vt 0.9411 0.7316
vt 0.8764 0.6899
vt 0.8441 0.6691
vt 0.8117 0.6482
vt 0.7794 0.6274
vt 0.7471 0.6066
vt 0.6847 0.5878
vt 0.7159 0.5972
vt 0.6535 0.5785
vt 0.6223 0.5691
vt 0.5911 0.5597
vt 0.9776 0.4565
vt 0.9734 0.7524
vt 0.5911 0.5597
vt 0.6029 0.4729
vt 0.5911 0.5597
vt 0.5914 0.3795
vn 0.0000 0.9859 0.1674
vn 0.9693 0.2366 -0.0669
vn 0.9300 -0.0593 -0.3627
vn 0.0000 1.0000 0.0027
vn -0.4104 0.8990 0.1526
vn -0.3925 0.9197 0.0086
vn -0.3644 0.9201 -0.1437
vn 0.0000 0.9880 -0.1543
vn 0.7024 0.1637 -0.6926
vn 0.5388 -0.6865 0.4882
vn -0.0208 0.0960 -0.9951
vn -0.0423 0.0963 -0.9944
vn -0.0522 0.2842 -0.9573
vn 0.4021 -0.6807 0.6123
vn -0.0232 0.6936 0.7199
vn -0.0202 0.6627 0.7486
vn -0.0263 0.9942 0.1040
vn -0.0285 0.9942 0.1035
vn -0.0444 0.9943 0.0965
vn -0.0382 0.9945 0.0977
vn 0.0012 0.9993 -0.0371
vn 0.0036 0.9993 -0.0370
vn -0.0151 0.9993 0.0343
vn -0.0029 0.9994 -0.0341
vn -0.0368 0.9971 0.0667
vn -0.0394 0.9970 0.0660
vn -0.0387 0.9971 0.0648
vn -0.0367 0.9972 0.0650
vn -0.0054 0.9996 -0.0255
vn -0.0043 0.9996 -0.0256
vn -0.0042 0.9997 -0.0249
vn -0.0055 0.9997 -0.0250
vn -0.0324 0.9925 0.1175
vn -0.0298 0.9926 0.1181
vn -0.0310 0.9932 0.1124
vn -0.0285 0.9932 0.1130
vn -0.0297 0.9937 0.1078
vn -0.0273 0.9937 0.1083
vn -0.0531 0.9946 0.0889
vn -0.0498 0.9947 0.0902
vn -0.0496 0.9953 0.0831
vn -0.0465 0.9953 0.0843
vn -0.0466 0.9958 0.0780
vn -0.0437 0.9959 0.0791
vn -0.0439 0.9963 0.0736
vn -0.0411 0.9964 0.0745
vn -0.0415 0.9967 0.0696
vn -0.0389 0.9967 0.0704
vn -0.0298 0.9970 0.0715
vn -0.0327 0.9969 0.0709
vn -0.0310 0.9973 0.0672
vn -0.0282 0.9973 0.0677
vn -0.0315 0.9966 0.0757
vn -0.0346 0.9966 0.0750
vn -0.0335 0.9962 0.0804
vn -0.0368 0.9961 0.0797
vn -0.0357 0.9957 0.0858
vn -0.0392 0.9956 0.0850
vn -0.0383 0.9950 0.0920
vn -0.0420 0.9949 0.0910
vn -0.0320 0.9946 0.0984
vn -0.0200 0.9938 0.1092
vn -0.0225 0.9938 0.1089
vn -0.0216 0.9943 0.1045
vn -0.0192 0.9943 0.1049
vn -0.0209 0.9933 0.1140
vn -0.0234 0.9932 0.1136
vn -0.0219 0.9926 0.1192
vn -0.0245 0.9926 0.1188
vn -0.0148 0.6569 0.7538
vn -0.0167 0.6625 0.7488
vn -0.0309 0.9974 0.0654
vn -0.0273 0.9975 0.0656
vn -0.0084 0.9996 -0.0256
vn -0.0075 0.9996 -0.0257
vn -0.0075 0.9996 -0.0251
vn -0.0083 0.9996 -0.0252
vn -0.0057 0.9993 -0.0364
vn -0.0034 0.9993 -0.0367
vn -0.0064 0.9994 -0.0339
vn -0.0085 0.9994 -0.0336
vn 0.0016 0.9987 -0.0498
vn -0.0046 0.9988 -0.0491
vn 0.0015 0.9990 -0.0447
vn -0.0042 0.9990 -0.0442
vn 0.0013 0.9991 -0.0406
vn -0.0038 0.9992 -0.0401
vn -0.0077 0.9988 -0.0486
vn -0.0069 0.9990 -0.0437
vn -0.0063 0.9992 -0.0397
vn 0.0048 0.9987 -0.0497
vn 0.0043 0.9990 -0.0446
vn 0.0039 0.9991 -0.0405
vn -0.0070 0.9995 -0.0320
vn -0.0094 0.9994 -0.0318
vn -0.0067 0.9995 -0.0305
vn -0.0090 0.9995 -0.0304
vn -0.0063 0.9995 -0.0291
vn -0.0085 0.9995 -0.0291
vn -0.0060 0.9996 -0.0279
vn -0.0082 0.9996 -0.0279
vn -0.0057 0.9996 -0.0267
vn -0.0078 0.9996 -0.0267
vn -0.0105 0.9994 -0.0316
vn -0.0100 0.9995 -0.0302
vn -0.0096 0.9995 -0.0290
vn -0.0092 0.9995 -0.0278
vn -0.0088 0.9996 -0.0266
vn -0.0058 0.9995 -0.0321
vn -0.0055 0.9995 -0.0306
vn -0.0052 0.9995 -0.0292
vn -0.0049 0.9996 -0.0279
vn -0.0046 0.9996 -0.0267
vn -0.0057 -0.9996 0.0267
vn -0.0046 -0.9996 0.0267
vn -0.0043 -0.9996 0.0256
vn -0.0054 -0.9996 0.0255
vn -0.0060 -0.9996 0.0279
vn -0.0049 -0.9996 0.0279
vn -0.0063 -0.9995 0.0291
vn -0.0052 -0.9995 0.0292
vn -0.0067 -0.9995 0.0305
vn -0.0055 -0.9995 0.0306
vn -0.0070 -0.9995 0.0320
vn -0.0058 -0.9995 0.0321
vn -0.0029 -0.9994 0.0341
vn -0.0151 -0.9993 -0.0343
vn -0.0088 -0.9996 0.0266
vn -0.0078 -0.9996 0.0267
vn -0.0075 -0.9996 0.0257
vn -0.0084 -0.9996 0.0256
vn -0.0092 -0.9995 0.0278
vn -0.0082 -0.9996 0.0279
vn -0.0096 -0.9995 0.0290
vn -0.0085 -0.9995 0.0291
vn -0.0100 -0.9995 0.0302
vn -0.0090 -0.9995 0.0304
vn -0.0105 -0.9994 0.0316
vn -0.0094 -0.9994 0.0318
vn -0.0085 -0.9994 0.0336
vn -0.0064 -0.9994 0.0339
vn 0.0013 -0.9991 0.0406
vn 0.0039 -0.9991 0.0405
vn 0.0036 -0.9993 0.0370
vn 0.0012 -0.9993 0.0371
vn 0.0015 -0.9990 0.0447
vn 0.0043 -0.9990 0.0446
vn 0.0016 -0.9987 0.0498
vn 0.0048 -0.9987 0.0497
vn -0.2367 -0.9662 0.1024
vn -0.1982 -0.5585 0.8054
vn -0.0063 -0.9992 0.0397
vn -0.0038 -0.9992 0.0401
vn -0.0034 -0.9993 0.0367
vn -0.0057 -0.9993 0.0364
vn -0.0069 -0.9990 0.0437
vn -0.0042 -0.9990 0.0442
vn -0.0077 -0.9988 0.0486
vn -0.0046 -0.9988 0.0491
vn -0.2346 -0.9669 0.1003
vn -0.2398 -0.9655 0.1019
vn -0.0055 -0.9997 0.0250
vn -0.0075 -0.9996 0.0251
vn -0.0083 -0.9996 0.0252
vn 0.0052 0.4472 0.8944
vn -0.0229 -0.7482 0.6630
vn -0.0188 -0.7486 0.6627
vn -0.0167 -0.7425 0.6697
vn -0.0216 -0.9943 -0.1045
vn -0.0263 -0.9942 -0.1040
vn -0.0382 -0.9945 -0.0977
vn -0.0320 -0.9946 -0.0984
vn -0.0192 -0.9943 -0.1049
vn -0.0310 -0.9973 -0.0672
vn -0.0368 -0.9971 -0.0667
vn -0.0367 -0.9972 -0.0650
vn -0.0308 -0.9974 -0.0654
vn -0.0282 -0.9973 -0.0677
vn -0.0273 -0.9975 -0.0656
vn -0.0298 -0.9926 -0.1181
vn -0.0245 -0.9926 -0.1188
vn -0.0219 -0.9926 -0.1192
vn -0.0285 -0.9932 -0.1130
vn -0.0234 -0.9932 -0.1136
vn -0.0209 -0.9933 -0.1140
vn -0.0274 -0.9937 -0.1083
vn -0.0225 -0.9938 -0.1089
vn -0.0200 -0.9938 -0.1092
vn -0.0498 -0.9947 -0.0902
vn -0.0420 -0.9949 -0.0910
vn -0.0383 -0.9950 -0.0920
vn -0.0465 -0.9953 -0.0843
vn -0.0392 -0.9956 -0.0850
vn -0.0357 -0.9957 -0.0858
vn -0.0437 -0.9959 -0.0791
vn -0.0368 -0.9961 -0.0797
vn -0.0335 -0.9962 -0.0804
vn -0.0411 -0.9964 -0.0745
vn -0.0346 -0.9966 -0.0750
vn -0.0315 -0.9966 -0.0757
vn -0.0389 -0.9967 -0.0704
vn -0.0327 -0.9969 -0.0709
vn -0.0298 -0.9970 -0.0715
vn -0.0415 -0.9967 -0.0696
vn -0.0394 -0.9970 -0.0660
vn -0.0439 -0.9963 -0.0736
vn -0.0466 -0.9958 -0.0780
vn -0.0496 -0.9953 -0.0831
vn -0.0531 -0.9946 -0.0889
vn -0.0444 -0.9943 -0.0965
vn -0.0297 -0.9937 -0.1078
vn -0.0285 -0.9942 -0.1035
vn -0.0310 -0.9932 -0.1124
vn -0.0324 -0.9925 -0.1175
vn -0.0262 -0.7824 0.6222
vn -0.0042 -0.9997 0.0249
vn -0.0387 -0.9971 -0.0648
vn -0.5156 -0.0864 0.8524
vn 0.0094 0.8000 0.6000
vn -0.4606 -0.8755 0.1459
usemtl Material.003
s 1
f 3/1/1 6/2/2 8/3/3 9/4/4
f 1/5/5 3/1/1 9/4/4 7/6/6
f 2/7/7 7/6/6 9/4/4 4/8/8
f 4/8/8 9/4/4 8/3/3 5/9/9
f 5/9/9 8/3/3 12/10/10 71/11/11 70/12/12 10/13/13
f 8/3/3 6/2/2 11/14/14 42/15/14 43/16/14 12/10/10
f 42/15/14 11/14/14 13/17/15 44/18/16
f 56/19/17 25/20/18 17/21/19 48/22/20
f 91/23/21 83/24/22 16/25/23 73/26/24
f 68/27/25 35/28/26 18/29/27 46/30/28
f 115/31/29 103/32/30 21/33/31 75/34/32
f 44/18/16 13/17/15 22/35/33 50/36/34
f 50/36/34 22/35/33 23/37/35 52/38/36
f 52/38/36 23/37/35 24/39/37 54/40/38
f 54/40/38 24/39/37 25/20/18 56/19/17
f 48/22/20 17/21/19 30/41/39 58/42/40
f 58/42/40 30/41/39 31/43/41 60/44/42
f 60/44/42 31/43/41 32/45/43 62/46/44
f 62/46/44 32/45/43 33/47/45 64/48/46
f 64/48/46 33/47/45 34/49/47 66/50/48
f 66/50/48 34/49/47 35/28/26 68/27/25
f 37/51/49 67/52/50 69/53/51 36/54/52
f 67/52/50 66/50/48 68/27/25 69/53/51
f 38/55/53 65/56/54 67/52/50 37/51/49
f 65/56/54 64/48/46 66/50/48 67/52/50
f 39/57/55 63/58/56 65/56/54 38/55/53
f 63/58/56 62/46/44 64/48/46 65/56/54
f 40/59/57 61/60/58 63/58/56 39/57/55
f 61/60/58 60/44/42 62/46/44 63/58/56
f 41/61/59 59/62/60 61/60/58 40/59/57
f 59/62/60 58/42/40 60/44/42 61/60/58
f 16/25/23 49/63/61 59/62/60 41/61/59
f 49/63/61 48/22/20 58/42/40 59/62/60
f 27/64/62 55/65/63 57/66/64 26/67/65
f 55/65/63 54/40/38 56/19/17 57/66/64
f 28/68/66 53/69/67 55/65/63 27/64/62
f 53/69/67 52/38/36 54/40/38 55/65/63
f 29/70/68 51/71/69 53/69/67 28/68/66
f 51/71/69 50/36/34 52/38/36 53/69/67
f 14/72/70 45/73/71 51/71/69 29/70/68
f 45/73/71 44/18/16 50/36/34 51/71/69
f 36/54/52 69/53/51 47/74/72 19/75/73
f 69/53/51 68/27/25 46/30/28 47/74/72
f 26/67/65 57/66/64 49/63/61 16/25/23
f 57/66/64 56/19/17 48/22/20 49/63/61
f 12/10/10 43/16/14 45/73/71 14/72/70
f 43/16/14 42/15/14 44/18/16 45/73/71
f 92/76/74 109/77/75 74/78/76 20/79/77
f 109/77/75 115/31/29 75/34/32 74/78/76
f 76/80/78 87/81/79 72/82/80 15/83/81
f 87/81/79 91/23/21 73/26/24 72/82/80
f 70/12/12 71/11/11 88/84/82 84/85/83
f 84/85/83 88/84/82 89/86/84 85/87/85
f 85/87/85 89/86/84 90/88/86 86/89/87
f 86/89/87 90/88/86 91/23/21 87/81/79
f 10/13/13 70/12/12 84/85/83 79/90/88
f 79/90/88 84/85/83 85/87/85 78/91/89
f 78/91/89 85/87/85 86/89/87 77/92/90
f 77/92/90 86/89/87 87/81/79 76/80/78
f 71/11/11 12/10/10 80/93/91 88/84/82
f 88/84/82 80/93/91 81/94/92 89/86/84
f 89/86/84 81/94/92 82/95/93 90/88/86
f 90/88/86 82/95/93 83/24/22 91/23/21
f 72/82/80 73/26/24 110/96/94 104/97/95
f 104/97/95 110/96/94 111/98/96 105/99/97
f 105/99/97 111/98/96 112/100/98 106/101/99
f 106/101/99 112/100/98 113/102/100 107/103/101
f 107/103/101 113/102/100 114/104/102 108/105/103
f 108/105/103 114/104/102 115/31/29 109/77/75
f 15/83/81 72/82/80 104/97/95 97/106/104
f 97/106/104 104/97/95 105/99/97 96/107/105
f 96/107/105 105/99/97 106/101/99 95/108/106
f 95/108/106 106/101/99 107/103/101 94/109/107
f 94/109/107 107/103/101 108/105/103 93/110/108
f 93/110/108 108/105/103 109/77/75 92/76/74
f 73/26/24 16/25/23 98/111/109 110/96/94
f 110/96/94 98/111/109 99/112/110 111/98/96
f 111/98/96 99/112/110 100/113/111 112/100/98
f 112/100/98 100/113/111 101/114/112 113/102/100
f 113/102/100 101/114/112 102/115/113 114/104/102
f 114/104/102 102/115/113 103/32/30 115/31/29
f 117/116/114 129/117/115 128/118/116 116/119/117
f 118/120/118 130/121/119 129/117/115 117/116/114
f 119/122/120 131/123/121 130/121/119 118/120/118
f 120/124/122 132/125/123 131/123/121 119/122/120
f 121/126/124 133/127/125 132/125/123 120/124/122
f 158/128/126 215/129/127 133/127/125 121/126/124
f 138/130/128 123/131/129 122/132/130 139/133/131
f 137/134/132 124/135/133 123/131/129 138/130/128
f 136/136/134 125/137/135 124/135/133 137/134/132
f 135/138/136 126/139/137 125/137/135 136/136/134
f 134/140/138 127/141/139 126/139/137 135/138/136
f 216/142/140 159/143/141 127/141/139 134/140/138
f 123/131/129 117/116/114 116/119/117 122/132/130
f 124/135/133 118/120/118 117/116/114 123/131/129
f 125/137/135 119/122/120 118/120/118 124/135/133
f 126/139/137 120/124/122 119/122/120 125/137/135
f 127/141/139 121/126/124 120/124/122 126/139/137
f 159/143/141 158/128/126 121/126/124 127/141/139
f 141/144/142 149/145/143 148/146/144 140/147/145
f 142/148/146 150/149/147 149/145/143 141/144/142
f 143/150/148 151/151/149 150/149/147 142/148/146
f 160/152/150 219/153/151 151/151/149 143/150/148
f 154/154/152 145/155/153 144/156/154 155/157/155
f 153/158/156 146/159/157 145/155/153 154/154/152
f 152/160/158 147/161/159 146/159/157 153/158/156
f 221/162/160 161/163/161 147/161/159 152/160/158
f 145/155/153 141/144/142 140/147/145 144/156/154
f 146/159/157 142/148/146 141/144/142 145/155/153
f 147/161/159 143/150/148 142/148/146 146/159/157
f 161/163/161 160/152/150 143/150/148 147/161/159
f 144/156/154 140/147/145 158/128/126 159/143/141
f 155/157/155 144/156/154 159/143/141 216/142/140
f 122/132/130 116/119/117 156/164/162 157/165/163
f 139/133/131 122/132/130 157/165/163 211/166/164
f 188/167/165 189/168/165 187/169/166 186/170/167
f 219/153/151 188/167/165 186/170/167 217/171/168
f 174/172/169 175/173/170 183/174/171 182/175/172
f 205/176/173 174/172/169 182/175/172 215/129/127
f 162/177/174 163/178/175 185/179/176 184/180/177
f 195/181/178 162/177/174 184/180/177 212/182/179
f 186/170/167 187/169/166 181/183/180 180/184/181
f 217/171/168 186/170/167 180/184/181 202/185/182
f 180/184/181 181/183/180 179/186/183 178/187/184
f 202/185/182 180/184/181 178/187/184 203/188/185
f 178/187/184 179/186/183 177/189/186 176/190/187
f 203/188/185 178/187/184 176/190/187 204/191/188
f 176/190/187 177/189/186 175/173/170 174/172/169
f 204/191/188 176/190/187 174/172/169 205/176/173
f 182/175/172 183/174/171 173/192/189 172/193/190
f 215/129/127 182/175/172 172/193/190 190/194/191
f 172/193/190 173/192/189 171/195/192 170/196/193
f 190/194/191 172/193/190 170/196/193 191/197/194
f 170/196/193 171/195/192 169/198/195 168/199/196
f 191/197/194 170/196/193 168/199/196 192/200/197
f 168/199/196 169/198/195 167/201/198 166/202/199
f 192/200/197 168/199/196 166/202/199 193/203/200
f 166/202/199 167/201/198 165/204/201 164/205/202
f 193/203/200 166/202/199 164/205/202 194/206/203
f 164/205/202 165/204/201 163/178/175 162/177/174
f 194/206/203 164/205/202 162/177/174 195/181/178
f 165/204/201 197/207/204 196/208/205 163/178/175
f 167/201/198 198/209/206 197/207/204 165/204/201
f 169/198/195 199/210/207 198/209/206 167/201/198
f 171/195/192 200/211/208 199/210/207 169/198/195
f 173/192/189 201/212/209 200/211/208 171/195/192
f 183/174/171 214/213/210 201/212/209 173/192/189
f 177/189/186 207/214/211 206/215/212 175/173/170
f 179/186/183 208/216/213 207/214/211 177/189/186
f 181/183/180 209/217/214 208/216/213 179/186/183
f 187/169/166 218/218/215 209/217/214 181/183/180
f 116/119/117 128/118/116 210/219/216 156/164/162
f 163/178/175 196/208/205 213/220/217 185/179/176
f 140/147/145 148/146/144 215/129/127 158/128/126
f 175/173/170 206/215/212 214/213/210 183/174/171
f 189/168/165 220/221/165 218/218/215 187/169/166
f 222/222/218 223/223/219 220/221/165 189/168/165 188/167/165 219/153/151
f 224/224/220 222/222/218 219/153/151 160/152/150 161/163/161 221/162/160
